<?xml version="1.0" standalone="no"?>
<!DOCTYPE svg PUBLIC "-//W3C//DTD SVG 20010904//EN"
 "http://www.w3.org/TR/2001/REC-SVG-20010904/DTD/svg10.dtd">
<svg version="1.0" xmlns="http://www.w3.org/2000/svg"
 width="236.000000pt" height="314.000000pt" viewBox="0 0 236.000000 314.000000"
 preserveAspectRatio="xMidYMid meet">

<g transform="translate(0.000000,314.000000) scale(0.100000,-0.100000)"
fill="#000000" stroke="none">
<path d="M875 1950 c-113 -21 -278 -104 -361 -182 -28 -26 -60 -48 -70 -48
-11 0 -28 -6 -39 -14 -11 -7 -32 -16 -48 -20 -37 -9 -104 -71 -129 -120 -26
-51 -35 -150 -18 -202 14 -45 45 -82 78 -95 12 -5 25 -17 29 -26 9 -23 23 -33
51 -33 29 0 28 -18 -2 -26 -48 -12 -103 -100 -94 -151 2 -14 -6 -19 -42 -24
-103 -17 -224 -40 -229 -44 -14 -15 33 -8 319 45 173 32 319 56 324 53 5 -3 6
0 4 8 -6 15 -7 15 -49 4 -23 -6 -30 -1 -48 29 -27 43 -68 74 -110 82 -38 8
-49 22 -24 31 76 27 132 126 138 245 2 40 2 60 -1 43 -23 -146 -57 -224 -114
-258 -49 -29 -110 -26 -110 5 0 16 5 19 25 14 18 -5 33 1 60 25 82 73 112 240
64 362 -11 25 -29 37 -29 18 0 -4 -18 -11 -40 -14 -50 -6 -114 -56 -142 -111
-13 -25 -23 -68 -26 -109 -3 -45 -8 -65 -15 -58 -5 5 -8 38 -5 73 7 110 59
188 144 217 27 9 51 21 54 26 3 6 23 10 44 9 45 -1 64 -20 73 -76 3 -21 10
-41 16 -45 6 -4 8 5 4 23 -3 16 -7 38 -9 48 -4 26 111 122 196 164 92 45 166
62 266 62 108 0 194 -21 284 -68 89 -46 201 -156 235 -229 14 -29 28 -53 33
-53 5 0 7 4 3 9 -8 14 36 41 68 41 39 0 93 -25 106 -48 10 -18 8 -21 -17 -24
-22 -2 -33 -15 -63 -72 -32 -61 -38 -67 -47 -50 -10 16 -11 12 -12 -24 0 -24
-7 -59 -16 -77 -12 -27 -22 -34 -57 -39 -106 -16 -528 -92 -563 -102 -19 -5
-22 -1 -26 45 -3 34 -14 62 -32 86 -27 35 -83 72 -94 61 -3 -3 -3 -7 -1 -8 2
-2 18 -11 34 -20 36 -20 75 -89 75 -132 -1 -80 -58 -121 -167 -120 -40 0 -73
-3 -73 -7 0 -12 57 -20 120 -17 42 2 74 -5 135 -29 401 -156 458 -175 515
-170 68 7 590 86 608 92 7 3 62 106 122 230 106 219 110 225 139 225 16 0 32
4 36 9 3 6 -9 7 -31 4 l-36 -6 26 51 c27 54 33 87 16 97 -5 3 -9 -2 -8 -12 1
-10 -20 -63 -46 -118 -27 -55 -86 -180 -131 -278 -46 -98 -86 -181 -88 -184
-3 -3 -95 -18 -204 -34 -109 -17 -254 -38 -323 -49 -69 -10 -126 -17 -128 -16
-1 2 43 97 99 212 125 258 162 338 180 387 7 21 18 42 24 47 5 4 127 13 270
20 143 6 276 15 295 20 23 6 -5 7 -85 4 -66 -3 -185 -9 -265 -12 -143 -7 -145
-7 -165 16 -27 31 -67 52 -102 52 -22 0 -31 6 -39 29 -12 31 -83 84 -128 95
-17 4 -57 34 -89 67 -67 67 -159 122 -249 150 -71 23 -203 32 -273 19z m255
-27 c65 -18 181 -76 207 -105 13 -15 1 -11 -52 15 -39 19 -98 42 -131 51 -78
20 -212 21 -289 1 -100 -25 -217 -90 -276 -152 -49 -51 -53 -54 -66 -37 -7 10
-13 21 -13 25 0 4 29 34 64 66 94 86 200 134 346 157 41 6 151 -4 210 -21z
m-596 -155 c-13 -24 -37 -48 -47 -48 -6 0 2 14 18 30 31 32 41 38 29 18z m987
-85 c16 -10 29 -21 29 -25 0 -10 -56 18 -65 32 -9 15 3 12 36 -7z m39 -451 c0
-31 -33 -42 -230 -77 -113 -19 -248 -45 -300 -55 -123 -26 -122 -26 -108 5 8
17 19 25 37 25 14 1 152 25 306 55 326 62 295 57 295 47z m-40 -84 c-11 -23
-26 -27 -243 -67 -128 -24 -236 -47 -240 -51 -5 -4 2 -6 15 -4 13 2 117 20
232 39 115 19 212 33 214 30 6 -5 -20 -11 -143 -30 -177 -28 -266 -48 -262
-58 1 -5 69 -35 150 -66 81 -31 147 -58 147 -61 0 -3 -4 -11 -9 -18 -7 -11
-15 -10 -47 5 -22 11 -104 44 -184 73 -137 50 -180 70 -152 70 7 0 12 5 12 10
0 7 -7 7 -21 -1 -17 -9 -33 -7 -75 7 -30 10 -54 22 -54 26 0 4 2 8 6 8 17 0
335 55 484 83 96 19 176 33 178 32 1 -1 -2 -14 -8 -27z m-1057 3 c21 -10 47
-32 57 -49 23 -37 28 -33 -100 -56 -47 -9 -95 -18 -107 -22 -20 -5 -23 -3 -23
20 0 50 42 108 85 119 36 8 49 7 88 -12z m984 -148 c-57 -117 -38 -110 -163
-62 -60 23 -125 48 -144 55 l-35 12 35 7 c109 19 307 53 322 54 15 1 12 -9
-15 -66z"/>
<path d="M1264 1599 c-12 -19 18 -233 34 -243 4 -2 7 10 7 27 0 27 4 32 25 32
22 0 25 -4 25 -33 0 -30 1 -31 13 -15 18 24 10 159 -12 201 -21 40 -28 41 -13
3 9 -25 8 -33 -7 -50 -10 -11 -24 -17 -31 -15 -19 8 -38 59 -30 83 7 22 1 28
-11 10z m79 -135 c9 -10 -4 -34 -19 -34 -8 0 -14 9 -14 20 0 19 19 27 33 14z"/>
<path d="M1056 1574 c-16 -41 4 -218 26 -239 8 -7 9 -5 5 8 -9 26 10 67 31 67
26 0 42 -20 43 -54 0 -31 0 -31 10 -6 13 30 3 158 -16 209 l-14 36 2 -38 c2
-29 -3 -42 -19 -53 -30 -21 -58 3 -58 50 0 40 -1 43 -10 20z m78 -129 c3 -9
-1 -18 -10 -22 -19 -7 -28 2 -21 22 8 19 23 19 31 0z"/>
<path d="M1570 1486 c0 -9 5 -16 10 -16 6 0 10 4 10 9 0 6 -4 13 -10 16 -5 3
-10 -1 -10 -9z"/>
<path d="M1900 1275 c-7 -8 -9 -15 -6 -15 4 0 14 7 22 15 9 8 11 15 6 15 -5 0
-15 -7 -22 -15z"/>
<path d="M1834 1256 c-56 -25 -80 -87 -54 -136 23 -44 131 -37 178 11 45 46
49 119 7 119 -8 0 -15 5 -15 10 0 6 -8 10 -17 10 -15 0 -16 -2 -3 -10 8 -5 12
-10 10 -12 -35 -22 -46 -24 -58 -12 -7 8 -10 19 -7 24 8 13 -4 12 -41 -4z m19
-23 c-5 -12 -2 -15 10 -10 9 3 19 2 23 -4 4 -6 10 -7 18 0 6 5 25 11 41 13 24
2 31 -1 33 -19 8 -53 -57 -113 -122 -113 -32 0 -76 41 -76 70 0 22 50 80 69
80 6 0 7 -8 4 -17z"/>
<path d="M1850 1175 c-12 -31 -5 -49 7 -19 11 26 56 28 50 2 -7 -26 2 -23 12
5 11 28 3 41 -15 26 -11 -9 -17 -9 -29 1 -12 10 -16 8 -25 -15z"/>
<path d="M875 980 c-3 -6 1 -7 9 -4 18 7 21 14 7 14 -6 0 -13 -4 -16 -10z"/>
<path d="M718 937 c26 -28 29 -56 5 -59 -10 -1 -25 -2 -33 -3 -8 -1 -33 -7
-54 -13 -22 -6 -42 -9 -47 -7 -4 3 -20 -2 -35 -10 -16 -8 -39 -15 -51 -15 -15
0 -23 -6 -23 -17 0 -11 3 -14 8 -8 13 20 160 56 148 37 -3 -4 -39 -19 -80 -32
-81 -25 -81 -25 -110 -122 -8 -27 -11 -48 -6 -48 9 0 26 42 35 87 3 17 12 36
18 41 19 14 99 41 142 47 22 4 49 8 60 10 11 2 42 4 68 4 29 1 46 5 42 11 -3
6 -27 10 -53 10 -59 0 -44 18 18 20 25 1 47 1 50 0 3 -1 21 -3 40 -5 29 -4 32
-3 16 7 -10 6 -43 10 -72 10 -44 0 -54 3 -54 17 0 21 -28 61 -42 61 -6 0 -2
-10 10 -23z m-23 -87 c4 -6 -5 -10 -20 -10 -15 0 -24 4 -20 10 3 6 12 10 20
10 8 0 17 -4 20 -10z"/>
<path d="M911 864 c6 -8 14 -12 17 -9 3 3 11 0 18 -5 6 -6 16 -10 20 -9 10 2
39 -7 64 -20 9 -5 31 -12 49 -16 32 -7 129 -90 118 -102 -3 -3 -25 10 -49 30
-24 19 -52 39 -63 45 -47 24 -139 51 -193 56 -55 6 -54 5 32 -19 101 -29 174
-65 224 -112 42 -40 49 -40 64 -8 10 23 8 28 -27 59 -21 19 -50 40 -64 46 -63
30 -113 49 -174 65 -42 12 -47 12 -36 -1z"/>
<path d="M538 738 c-9 -8 -18 -35 -21 -68 -3 -30 -2 -44 1 -31 5 16 20 28 42
36 24 8 36 19 38 35 6 35 -30 52 -60 28z m50 -21 c2 -11 -6 -21 -24 -27 -34
-13 -40 -7 -26 26 14 29 45 30 50 1z"/>
<path d="M640 730 c-32 -32 -22 -90 16 -90 41 0 60 80 24 100 -15 8 -24 6 -40
-10z m48 -31 c3 -30 -18 -52 -42 -43 -17 6 -21 30 -10 59 10 26 48 15 52 -16z"/>
<path d="M738 743 c21 -4 23 -8 17 -51 -4 -33 -2 -41 4 -27 5 11 10 32 10 47
1 19 7 28 24 31 12 2 0 4 -28 4 -27 0 -40 -2 -27 -4z"/>
<path d="M848 708 c-14 -18 -29 -40 -33 -48 -8 -13 -6 -13 8 -2 19 16 57 7 57
-14 0 -8 5 -14 11 -14 13 0 3 89 -11 103 -4 5 -19 -6 -32 -25z m32 -8 c0 -13
-7 -20 -20 -20 -18 0 -19 2 -8 20 7 11 16 20 20 20 5 0 8 -9 8 -20z"/>
<path d="M950 709 c0 -4 5 -9 11 -11 8 -3 8 -14 0 -43 -6 -21 -9 -41 -6 -43 2
-3 9 16 16 41 8 32 15 44 25 40 8 -3 14 -1 14 5 0 5 -13 12 -30 14 -16 3 -30
1 -30 -3z"/>
<path d="M1026 658 c-19 -27 -20 -50 -4 -66 29 -29 78 3 78 50 0 42 -49 52
-74 16z m62 -19 c3 -29 -20 -54 -43 -45 -18 7 -20 47 -3 64 19 19 43 10 46
-19z"/>
<path d="M1151 586 c-6 -24 -15 -106 -21 -182 -8 -119 -13 -146 -37 -194 l-28
-55 -59 -3 c-32 -2 -86 4 -120 12 -70 18 -95 20 -81 8 23 -19 165 -45 219 -39
45 4 56 3 56 -9 0 -8 -5 -12 -10 -9 -6 4 -16 2 -23 -4 -8 -6 -18 -6 -27 -1 -9
5 -19 5 -28 -2 -9 -8 -16 -8 -24 0 -6 6 -16 8 -23 5 -8 -2 -24 1 -37 8 -27 14
-44 17 -193 24 -135 6 -179 10 -191 17 -5 3 -33 11 -61 18 -29 6 -53 16 -53
21 0 11 -9 12 95 -10 89 -20 249 -30 262 -17 3 3 -16 6 -43 6 -53 1 -141 12
-244 33 -59 11 -67 16 -82 47 -28 54 -24 173 7 267 27 79 27 112 1 48 -51
-121 -62 -255 -26 -325 11 -22 20 -48 20 -58 0 -15 14 -22 67 -35 36 -9 70
-14 75 -11 4 3 14 2 20 -3 7 -4 65 -9 128 -10 64 0 145 -8 183 -17 38 -9 73
-14 77 -11 5 3 11 1 14 -3 3 -5 31 -8 62 -6 57 3 78 16 69 43 -3 7 6 37 21 66
22 46 27 75 35 193 5 77 13 160 18 186 11 59 -3 60 -18 2z"/>
<path d="M775 552 c-16 -11 -36 -26 -43 -35 -7 -8 -36 -21 -65 -27 -29 -7 -61
-18 -73 -25 -39 -25 -71 -124 -45 -140 6 -3 10 12 9 34 -1 55 32 98 85 111 62
16 95 30 109 48 7 8 31 23 53 33 26 12 33 19 20 19 -11 0 -33 -8 -50 -18z"/>
<path d="M901 493 c36 -71 18 -147 -47 -201 -21 -18 -32 -32 -24 -32 42 0 113
110 107 166 -4 37 -33 104 -45 104 -6 0 -1 -17 9 -37z"/>
<path d="M973 514 c-3 -9 -1 -25 6 -36 10 -16 8 -20 -11 -28 -14 -5 -17 -9 -7
-9 8 -1 20 4 27 11 8 8 15 8 26 -1 11 -9 20 -10 36 -1 25 13 22 33 -6 39 -10
2 -25 12 -32 22 -16 23 -31 24 -39 3z m35 -17 c2 -10 -3 -17 -12 -17 -10 0
-16 9 -16 21 0 24 23 21 28 -4z m52 -26 c0 -10 -30 -24 -37 -17 -3 3 -2 9 2
15 8 13 35 15 35 2z"/>
<path d="M810 435 c0 -14 4 -25 9 -25 4 0 6 11 3 25 -2 14 -6 25 -8 25 -2 0
-4 -11 -4 -25z"/>
<path d="M668 403 c7 -3 16 -2 19 1 4 3 -2 6 -13 5 -11 0 -14 -3 -6 -6z"/>
<path d="M718 323 c6 -2 18 -2 25 0 6 3 1 5 -13 5 -14 0 -19 -2 -12 -5z"/>
<path d="M590 286 c0 -4 25 -17 56 -31 57 -25 118 -33 128 -16 4 5 -14 9 -38
9 -24 0 -57 7 -72 15 -37 19 -74 30 -74 23z"/>
</g>
</svg>
